<svg xmlns="http://www.w3.org/2000/svg" xmlns:xlink="http://www.w3.org/1999/xlink"><defs><symbol viewBox="0 0 24 24" id="arrow-back"><path d="M15 16.608L13.663 18 8 12l5.663-6L15 7.416 10.65 12z" fill-rule="evenodd" /></symbol><symbol viewBox="0 0 24 24" id="arrow-collapse"><path d="M7.416 15L6 13.663 12 8l6 5.663L16.584 15 12 10.65z" fill-rule="evenodd" /></symbol><symbol viewBox="0 0 24 24" id="arrow-expand"><path d="M7.416 9L12 13.35 16.584 9 18 10.337 12 16l-6-5.663z" fill-rule="evenodd" /></symbol><symbol viewBox="0 0 24 24" id="arrow-first-page"><path d="M6 6h2.016v12H6V6zm12.432 10.584L17.016 18l-6-6 6-6 1.416 1.416L13.824 12l4.608 4.584z" fill-rule="evenodd" /></symbol><symbol viewBox="0 0 24 24" id="arrow-forward"><path d="M9 16.608L13.35 12 9 7.416 10.337 6 16 12l-5.663 6z" fill-rule="evenodd" /></symbol><symbol viewBox="0 0 24 24" id="arrow-last-page"><path d="M16.416 6h2.016v12h-2.016V6zM6 7.416L7.416 6l6 6-6 6L6 16.584 10.608 12 6 7.416z" fill-rule="evenodd" /></symbol><symbol viewBox="0 0 24 24" id="arrow-navdown"><path d="M18.2 11.68l-6.6 7.6-6.6-7.6h3.84v-7h5.52v7z" fill-rule="evenodd" /></symbol><symbol viewBox="0 0 24 24" id="arrow-navlink"><path d="M12 5.4l7.6 6.6-7.6 6.6v-3.84H5V9.2h7z" fill-rule="evenodd" /></symbol><symbol viewBox="0 0 24 24" id="arrow-navlink-alt"><path d="M12 5.32L18.68 12 12 18.68l-1.18-1.18 4.66-4.68H5.32v-1.64h10.16L10.82 6.5z" fill-rule="evenodd" /></symbol><symbol viewBox="0 0 24 24" id="arrow-navlink-back"><path d="M18.36 10.86v1.64H8.2l4.66 4.68-1.18 1.18L5 11.68 11.68 5l1.18 1.18-4.66 4.68z" fill-rule="evenodd" /></symbol><symbol viewBox="0 0 24 24" id="arrow-navlink-leavesite"><path d="M9.5 6.18h8.32v8.32h-1.64V9L6.5 18.68 5.32 17.5 15 7.82H9.5z" fill-rule="evenodd" /></symbol><symbol viewBox="0 0 24 24" id="arrow-navprev"><path d="M11.56 18.6L4 12l7.56-6.6v3.8h7.04v5.56h-7.04z" fill-rule="evenodd" /></symbol><symbol viewBox="0 0 24 24" id="arrow-navup"><path d="M18.2 12.28h-3.84v7H8.84v-7H5l6.6-7.6z" fill-rule="evenodd" /></symbol><symbol viewBox="0 0 24 24" id="bullet"><circle fill-rule="nonzero" cx="12" cy="12" r="3" /></symbol><symbol viewBox="0 0 24 24" id="burger"><g fill-rule="nonzero"><path d="M2 4h20v3H2zM2 11h20v3H2zM2 18h20v3H2z" /></g></symbol><symbol viewBox="0 0 24 24" id="checkmark-bold"><path d="M2 13.8l3.24-3.24 3.32 3.28 10.16-10.2L22 6.92 8.56 20.36l-3.24-3.28z" fill-rule="evenodd" /></symbol><symbol viewBox="0 0 24 24" id="checkmark-thin"><path d="M9 15.776L19.584 5.168 21 6.584l-12 12-5.568-5.568L4.824 11.6z" fill-rule="evenodd" /></symbol><symbol viewBox="0 0 24 24" id="close"><path d="M17.82 7.36L13.18 12l4.64 4.64-1.18 1.18L12 13.18l-4.64 4.64-1.18-1.18L10.82 12 6.18 7.36l1.18-1.18L12 10.82l4.64-4.64z" fill-rule="evenodd" /></symbol><symbol viewBox="0 0 24 24" id="menu"><path d="M2 4h20v3H2V4zm0 7h20v3H2v-3zm0 7h20v3H2v-3z" fill-rule="nonzero" /></symbol><symbol viewBox="0 0 24 24" id="minus"><path d="M4 14.656v-4.512h16v4.512z" fill-rule="evenodd" /></symbol><symbol viewBox="0 0 24 24" id="plus"><path d="M4 14.656v-4.512h5.744V4.4h4.512v5.744H20v4.512h-5.744V20.4H9.744v-5.744z" fill-rule="evenodd" /></symbol><symbol viewBox="0 0 24 24" id="quote-marks"><g fill-rule="evenodd"><path d="M2 20.842c0-2.95.02-5.081.061-6.393.082-3.524.615-6.136 1.599-7.837.983-1.7 2.704-2.571 5.163-2.612l.983 2.766c-1.393.082-2.335.615-2.827 1.598-.492.984-.738 2.52-.738 4.61h3.811v7.868H2zM13.74 20.842c0-2.95.02-5.081.062-6.393.082-3.524.614-6.136 1.598-7.837.983-1.7 2.704-2.571 5.163-2.612l.984 2.766c-1.394.082-2.336.615-2.828 1.598-.492.984-.737 2.52-.737 4.61h3.81v7.868H13.74z" /></g></symbol><symbol viewBox="0 0 24 24" id="search"><path d="M11 16a5 5 0 1 0 0-10 5 5 0 0 0 0 10zm6.618-.504l4.135 4.136-2.121 2.121-4.136-4.135a8 8 0 1 1 2.121-2.121z" fill-rule="nonzero" /></symbol><symbol viewBox="0 0 24 24" id="sm-facebook"><path d="M17 6.12h-2.84c-.187 0-.353.1-.5.3-.147.2-.22.447-.22.74V9.2H17v2.96h-3.56V21h-3.4v-8.84H7V9.2h3.04V7.48c0-1.253.393-2.313 1.18-3.18.787-.867 1.767-1.3 2.94-1.3H17v3.12z" fill-rule="evenodd" /></symbol><symbol viewBox="0 0 24 24" id="sm-instagram"><path d="M16.8 12c0-.347-.04-.68-.12-1h3.52v6.88c0 .747-.26 1.387-.78 1.92-.52.533-1.153.8-1.9.8H5.68c-.747 0-1.38-.267-1.9-.8A2.652 2.652 0 0 1 3 17.88V11h3.48c-.053.427-.08.76-.08 1 0 1.413.507 2.633 1.52 3.66 1.013 1.027 2.233 1.54 3.66 1.54s2.653-.513 3.68-1.54c1.027-1.027 1.54-2.247 1.54-3.66zm.72-8.6c.747 0 1.38.26 1.9.78s.78 1.153.78 1.9V9h-4.36c-1.04-1.467-2.453-2.2-4.24-2.2-1.84 0-3.253.733-4.24 2.2H3V6.08c0-.747.26-1.38.78-1.9s1.153-.78 1.9-.78h11.84zm1.28 3.32V5.28c0-.32-.16-.48-.48-.48h-1.44c-.32 0-.48.16-.48.48v1.44c0 .107.047.213.14.32.093.107.207.16.34.16h1.44c.32 0 .48-.16.48-.48zm-4 5.28c0 .88-.313 1.633-.94 2.26-.627.627-1.38.94-2.26.94-.88 0-1.633-.313-2.26-.94a3.105 3.105 0 0 1-.94-2.28c0-.893.313-1.647.94-2.26a3.115 3.115 0 0 1 2.26-.92c.88 0 1.633.307 2.26.92.627.613.94 1.373.94 2.28z" fill-rule="evenodd" /></symbol><symbol viewBox="0 0 24 24" id="sm-twitter"><path d="M21.4 6.28c-.48.72-1.107 1.373-1.88 1.96v.48c0 1.733-.4 3.4-1.2 5-.8 1.6-2.04 2.953-3.72 4.06-1.68 1.107-3.613 1.66-5.8 1.66-2.133 0-4.067-.56-5.8-1.68.187.027.493.04.92.04 1.76 0 3.32-.533 4.68-1.6a3.781 3.781 0 0 1-2.2-.76 3.64 3.64 0 0 1-1.32-1.88c.133.053.367.08.7.08.333 0 .66-.04.98-.12A3.677 3.677 0 0 1 4.6 12.2a3.71 3.71 0 0 1-.84-2.4v-.04c.48.267 1.04.427 1.68.48-1.12-.773-1.68-1.827-1.68-3.16 0-.64.173-1.267.52-1.88 2.053 2.507 4.653 3.813 7.8 3.92a2.66 2.66 0 0 1-.12-.84c0-1.04.367-1.927 1.1-2.66.733-.733 1.64-1.1 2.72-1.1 1.08 0 1.98.387 2.7 1.16.8-.16 1.6-.453 2.4-.88-.267.88-.813 1.573-1.64 2.08a8.666 8.666 0 0 0 2.16-.6z" fill-rule="evenodd" /></symbol><symbol viewBox="0 0 24 24" id="sm-youtube"><path d="M10.142 13.665l-.001-5.058 4.863 2.538-4.862 2.52zM20.82 7.73s-.176-1.24-.715-1.787c-.685-.717-1.452-.72-1.804-.762C15.782 5 12.004 5 12.004 5h-.008S8.218 5 5.7 5.182c-.352.042-1.119.045-1.804.762-.54.547-.715 1.787-.715 1.787S3 9.188 3 10.644v1.366c0 1.457.18 2.913.18 2.913s.175 1.24.715 1.787c.685.717 1.584.694 1.985.77 1.44.137 6.12.18 6.12.18s3.782-.005 6.301-.188c.352-.042 1.119-.045 1.804-.762.539-.547.715-1.787.715-1.787s.18-1.456.18-2.913v-1.366c0-1.456-.18-2.913-.18-2.913z" fill-rule="evenodd" /></symbol></defs></svg>